<svg width="14" height="14" viewBox="0 0 14 14" fill="none" xmlns="http://www.w3.org/2000/svg">
<circle cx="7" cy="7" r="6.75" fill="white" stroke="#727171" stroke-width="0.5"/>
<path d="M7.00001 6.01967V5.16667C6.9999 5.10079 6.9803 5.03643 6.94367 4.98167C6.90704 4.92692 6.85502 4.88424 6.79418 4.859C6.73333 4.83376 6.66637 4.8271 6.60174 4.83986C6.53712 4.85261 6.47771 4.88421 6.43101 4.93067L4.33334 7L6.43101 9.069C6.46189 9.10006 6.49861 9.12471 6.53906 9.14153C6.5795 9.15835 6.62287 9.16701 6.66668 9.16701C6.71048 9.16701 6.75385 9.15835 6.79429 9.14153C6.83474 9.12471 6.87146 9.10006 6.90234 9.069C6.93331 9.03807 6.95788 9.00133 6.97464 8.96089C6.9914 8.92045 7.00002 8.87711 7.00001 8.83333V8.00367C7.91668 8.02633 8.91834 8.19233 9.66668 9.33333V9C9.66668 7.45567 8.50001 6.18567 7.00001 6.01967Z" fill="#727171"/>
</svg>
