<svg width="10" height="17" viewBox="0 0 10 17" fill="none" xmlns="http://www.w3.org/2000/svg">
<g clip-path="url(#clip0)">
<path d="M4.99997 0C2.54283 0 0.543962 1.96811 0.543962 4.3876C0.543962 6.8069 2.54283 8.77413 4.99997 8.77413C7.45703 8.77413 9.45491 6.8069 9.45491 4.3876C9.45491 1.96811 7.45705 0 4.99997 0ZM4.99997 2.57072C6.01692 2.57072 6.84388 3.38616 6.84388 4.3876C6.84388 5.38861 6.01693 6.20342 4.99997 6.20342C3.98282 6.20342 3.15499 5.38863 3.15499 4.3876C3.15499 3.38616 3.98282 2.57072 4.99997 2.57072ZM1.3262 8.9234C0.885338 8.91665 0.451813 9.13065 0.200325 9.5253C-0.184001 10.1265 0.000109138 10.9199 0.609251 11.2981C1.41498 11.7959 2.2893 12.1491 3.19601 12.3526L0.70582 14.8059C0.196044 15.3082 0.196476 16.1216 0.706355 16.6239C0.961917 16.8745 1.29523 17 1.62939 17C1.9632 17 2.29764 16.8744 2.55242 16.6233L4.99892 14.2131L7.44757 16.6233C7.95691 17.1255 8.78284 17.1255 9.29309 16.6233C9.80309 16.1214 9.80309 15.3071 9.29309 14.8059L6.80181 12.3532C7.70878 12.1496 8.58339 11.7962 9.38857 11.2981C9.99892 10.9199 10.1833 10.1257 9.7991 9.52532C9.41446 8.92395 8.60914 8.74279 7.99835 9.12157C6.17413 10.2515 3.82364 10.2508 1.99999 9.12157C1.79007 8.99137 1.55713 8.92696 1.3262 8.92342V8.9234Z" fill="white"/>
</g>
<defs>
<clipPath id="clip0">
<rect width="10" height="17" fill="white"/>
</clipPath>
</defs>
</svg>
