<svg width="18" height="18" viewBox="0 0 18 18" fill="none" xmlns="http://www.w3.org/2000/svg">
<g clip-path="url(#clip0)">
<path fill-rule="evenodd" clip-rule="evenodd" d="M17.5875 4.461C17.712 4.0515 17.5875 3.75 16.9913 3.75H15.0225C14.5215 3.75 14.2905 4.01025 14.1652 4.2975C14.1652 4.2975 13.164 6.6945 11.7458 8.2515C11.2867 8.703 11.0782 8.84625 10.8278 8.84625C10.7025 8.84625 10.5142 8.703 10.5142 8.29275V4.461C10.5142 3.969 10.3763 3.75 9.95925 3.75H6.86325C6.5505 3.75 6.36225 3.978 6.36225 4.19475C6.36225 4.6605 7.07175 4.7685 7.1445 6.0795V8.928C7.1445 9.55275 7.02975 9.666 6.77925 9.666C6.11175 9.666 4.488 7.25775 3.52425 4.50225C3.3375 3.966 3.1485 3.75 2.64525 3.75H0.675C0.1125 3.75 0 4.01025 0 4.2975C0 4.809 0.6675 7.35 3.10875 10.7108C4.73625 13.0057 7.0275 14.25 9.11475 14.25C10.3665 14.25 10.521 13.974 10.521 13.4977V11.763C10.521 11.2102 10.6395 11.1 11.0363 11.1C11.3287 11.1 11.829 11.244 12.9975 12.3502C14.3325 13.662 14.5523 14.25 15.3038 14.25H17.2725C17.835 14.25 18.117 13.974 17.955 13.428C17.7765 12.885 17.139 12.0968 16.2938 11.1615C15.8348 10.629 15.1463 10.0553 14.937 9.768C14.6453 9.39975 14.7285 9.2355 14.937 8.90775C14.937 8.90775 17.337 5.58825 17.5868 4.461H17.5875Z" fill="white"/>
</g>
<defs>
<clipPath id="clip0">
<rect width="18" height="18" fill="white"/>
</clipPath>
</defs>
</svg>
