<svg width="20" height="20" viewBox="0 0 20 20" fill="none" xmlns="http://www.w3.org/2000/svg">
<path d="M9.99909 6.14746C8.97712 6.14746 7.99701 6.55344 7.27437 7.27608C6.55173 7.99872 6.14575 8.97883 6.14575 10.0008C6.14575 11.0228 6.55173 12.0029 7.27437 12.7255C7.99701 13.4482 8.97712 13.8541 9.99909 13.8541C11.0211 13.8541 12.0012 13.4482 12.7238 12.7255C13.4464 12.0029 13.8524 11.0228 13.8524 10.0008C13.8524 8.97883 13.4464 7.99872 12.7238 7.27608C12.0012 6.55344 11.0211 6.14746 9.99909 6.14746ZM9.99909 12.5033C9.33516 12.5033 8.69843 12.2396 8.22896 11.7701C7.7595 11.3006 7.49575 10.6639 7.49575 9.99996C7.49575 9.33604 7.7595 8.6993 8.22896 8.22984C8.69843 7.76037 9.33516 7.49663 9.99909 7.49663C10.663 7.49663 11.2997 7.76037 11.7692 8.22984C12.2387 8.6993 12.5024 9.33604 12.5024 9.99996C12.5024 10.6639 12.2387 11.3006 11.7692 11.7701C11.2997 12.2396 10.663 12.5033 9.99909 12.5033Z" fill="white"/>
<path d="M14.005 6.90409C14.5012 6.90409 14.9034 6.50189 14.9034 6.00575C14.9034 5.50962 14.5012 5.10742 14.005 5.10742C13.5089 5.10742 13.1067 5.50962 13.1067 6.00575C13.1067 6.50189 13.5089 6.90409 14.005 6.90409Z" fill="white"/>
<path d="M17.1109 5.09273C16.918 4.59455 16.6232 4.14213 16.2453 3.76444C15.8675 3.38676 15.415 3.09212 14.9167 2.89939C14.3337 2.68053 13.7177 2.56218 13.095 2.54939C12.2925 2.51439 12.0384 2.50439 10.0034 2.50439C7.96838 2.50439 7.70754 2.50439 6.91171 2.54939C6.28953 2.56153 5.67401 2.6799 5.09171 2.89939C4.59332 3.0919 4.14068 3.38645 3.76282 3.76417C3.38496 4.14188 3.09023 4.59441 2.89754 5.09273C2.67863 5.67574 2.56055 6.29176 2.54838 6.91439C2.51254 7.71606 2.50171 7.97023 2.50171 10.0061C2.50171 12.0411 2.50171 12.3002 2.54838 13.0977C2.56088 13.7211 2.67838 14.3361 2.89754 14.9202C3.09077 15.4184 3.38579 15.8707 3.76374 16.2484C4.14169 16.626 4.59426 16.9207 5.09254 17.1136C5.67374 17.3412 6.28952 17.468 6.91338 17.4886C7.71588 17.5236 7.97004 17.5344 10.005 17.5344C12.04 17.5344 12.3009 17.5344 13.0967 17.4886C13.7193 17.4759 14.3352 17.3578 14.9184 17.1394C15.4165 16.9462 15.8689 16.6513 16.2467 16.2735C16.6245 15.8958 16.9194 15.4434 17.1125 14.9452C17.3317 14.3619 17.4492 13.7469 17.4617 13.1236C17.4975 12.3219 17.5084 12.0677 17.5084 10.0319C17.5084 7.99606 17.5084 7.73773 17.4617 6.94023C17.452 6.30879 17.3333 5.68377 17.1109 5.09273ZM16.0959 13.0361C16.0905 13.5163 16.0028 13.9921 15.8367 14.4427C15.7116 14.7668 15.52 15.0611 15.2743 15.3066C15.0286 15.5522 14.7342 15.7436 14.41 15.8686C13.9644 16.0339 13.4937 16.1216 13.0184 16.1277C12.2267 16.1644 12.0034 16.1736 9.97338 16.1736C7.94171 16.1736 7.73421 16.1736 6.92754 16.1277C6.45248 16.1219 5.98198 16.0342 5.53671 15.8686C5.21145 15.7444 4.91588 15.5533 4.66912 15.3077C4.42236 15.0621 4.22991 14.7674 4.10421 14.4427C3.94041 13.9969 3.8528 13.5268 3.84504 13.0519C3.80921 12.2602 3.80088 12.0369 3.80088 10.0069C3.80088 7.97606 3.80088 7.76856 3.84504 6.96106C3.85043 6.48108 3.93809 6.00558 4.10421 5.55523C4.35838 4.89773 4.87921 4.38023 5.53671 4.12856C5.9822 3.96368 6.45256 3.87603 6.92754 3.86939C7.72004 3.83356 7.94254 3.82356 9.97338 3.82356C12.0042 3.82356 12.2125 3.82356 13.0184 3.86939C13.4937 3.87511 13.9645 3.96279 14.41 4.12856C14.7341 4.25379 15.0285 4.4454 15.2742 4.69109C15.5199 4.93678 15.7115 5.23112 15.8367 5.55523C16.0005 6.00102 16.0881 6.47119 16.0959 6.94606C16.1317 7.73856 16.1409 7.96106 16.1409 9.9919C16.1409 12.0219 16.1409 12.2402 16.105 13.0369H16.0959V13.0361Z" fill="white"/>
</svg>
