<?xml version="1.0" standalone="no"?>
<!DOCTYPE svg PUBLIC "-//W3C//DTD SVG 20010904//EN"
 "http://www.w3.org/TR/2001/REC-SVG-20010904/DTD/svg10.dtd">
<svg version="1.0" xmlns="http://www.w3.org/2000/svg"
 width="704.000000pt" height="704.000000pt" viewBox="0 0 704.000000 704.000000"
 preserveAspectRatio="xMidYMid meet">
<metadata>
Created by potrace 1.14, written by Peter Selinger 2001-2017
</metadata>
<g transform="translate(0.000000,704.000000) scale(0.100000,-0.100000)"
fill="#000000" stroke="none">
<path d="M2430 6319 c-57 -11 -116 -35 -153 -61 l-29 -21 -72 24 c-180 60
-374 -4 -413 -136 l-12 -40 -90 3 c-105 5 -167 -12 -224 -59 -59 -49 -80 -100
-74 -178 2 -37 8 -74 12 -83 6 -15 2 -18 -21 -18 -54 0 -167 -29 -229 -59
-145 -67 -224 -192 -201 -316 10 -49 65 -108 129 -135 l52 -23 -25 -16 c-56
-36 -140 -125 -170 -182 -96 -180 -7 -368 193 -409 32 -6 80 -9 106 -5 l48 6
12 -88 c7 -48 34 -223 61 -388 71 -437 74 -463 75 -655 0 -193 -11 -267 -55
-367 -120 -267 -411 -304 -1082 -134 l-188 47 0 -176 0 -177 72 -17 c451 -109
838 -143 1033 -91 184 50 332 169 410 330 116 240 122 545 25 1185 -79 519
-81 536 -79 716 1 94 -1 176 -5 182 -5 8 -31 -8 -79 -48 -92 -78 -159 -110
-229 -110 -152 0 -137 152 29 301 51 46 144 109 210 143 44 22 73 49 73 70 0
2 -34 2 -75 -1 -146 -11 -255 34 -255 106 0 60 82 126 205 164 75 23 118 29
254 36 73 3 126 10 128 17 2 5 -14 18 -36 27 -117 52 -152 141 -80 201 75 64
220 60 449 -10 8 -2 22 0 30 5 12 8 9 14 -13 31 -90 71 -68 167 42 178 61 6
139 -27 204 -87 41 -38 66 -49 79 -35 3 3 -4 27 -15 54 -17 41 -19 54 -9 75
26 57 110 52 158 -10 36 -47 68 -134 52 -139 -7 -2 -44 -9 -83 -16 -261 -47
-486 -187 -610 -380 -102 -156 -138 -296 -138 -525 0 -274 43 -451 253 -1035
238 -663 310 -964 341 -1414 34 -500 -73 -900 -352 -1315 -303 -453 -795 -835
-1424 -1106 -60 -26 -114 -51 -119 -56 -12 -11 54 -39 164 -70 78 -22 104 -24
305 -24 l220 0 140 85 c375 228 697 505 874 753 19 26 38 47 41 47 4 0 40 -14
81 -31 346 -143 671 -209 1028 -209 216 0 339 15 506 62 283 79 489 195 694
392 87 84 208 237 250 317 16 30 40 56 70 75 67 42 220 198 275 282 92 140
164 317 180 442 3 31 20 68 51 115 95 145 140 311 133 495 -5 131 -25 192 -66
198 -15 2 -81 -29 -185 -87 -412 -229 -776 -360 -1182 -423 -188 -29 -573 -31
-770 -4 -175 24 -347 58 -492 96 l-120 32 -7 91 c-9 126 -39 330 -88 592 -50
272 -56 401 -20 480 58 128 159 165 394 145 278 -24 553 -91 763 -185 86 -38
234 -140 350 -241 143 -123 196 -157 249 -158 88 -2 123 66 111 219 -15 199
-65 416 -126 539 -16 32 -27 62 -23 65 3 3 139 6 302 6 260 -1 304 -3 357 -19
119 -37 171 -78 221 -177 61 -123 116 -168 230 -188 69 -13 156 -1 215 30 126
64 184 269 159 556 -23 254 -82 444 -190 611 -139 216 -334 354 -596 423 -81
22 -108 24 -294 23 -168 -1 -236 -6 -375 -28 -292 -46 -385 -56 -515 -56 -176
0 -193 9 -375 198 -344 358 -374 385 -464 430 -75 38 -86 47 -117 99 -67 113
-187 200 -309 222 -66 12 -82 12 -145 0z m452 -525 c58 -19 115 -76 130 -128
9 -33 46 -76 195 -226 100 -102 183 -191 183 -198 0 -8 -16 -12 -45 -12 -31 0
-45 -4 -45 -13 0 -34 151 -73 326 -83 100 -6 409 7 529 23 l49 6 -50 -59 c-28
-32 -66 -81 -83 -107 -51 -75 -127 -243 -156 -341 -26 -93 -36 -110 -67 -127
-30 -16 -373 -28 -546 -19 -277 15 -484 64 -642 152 -127 70 -261 224 -246
283 10 38 48 58 118 59 79 1 86 19 21 48 -66 30 -181 31 -238 1 -74 -39 -105
-89 -105 -169 0 -37 34 -144 45 -144 24 0 33 15 28 46 -5 30 -3 34 16 34 11 0
21 -4 21 -9 0 -23 170 -186 245 -236 168 -112 339 -176 715 -269 140 -35 302
-82 360 -104 200 -79 373 -197 434 -295 45 -73 23 -79 -59 -17 -37 28 -95 65
-128 82 -88 44 -296 110 -477 151 -85 19 -238 54 -340 77 -497 113 -715 205
-885 375 -152 151 -202 289 -192 524 6 146 23 214 79 329 71 146 220 281 361
328 26 9 51 14 53 11 3 -3 -2 -19 -10 -36 -36 -68 -38 -81 -13 -90 19 -7 29 0
73 48 95 105 229 145 346 105z m2082 -584 c340 -87 570 -423 602 -878 6 -91 5
-105 -11 -122 -38 -42 -88 -19 -143 65 -142 219 -313 275 -826 275 -138 -1
-311 -5 -385 -10 -139 -8 -156 -7 -164 14 -6 14 39 147 87 258 94 217 219 343
386 387 134 35 340 40 454 11z m306 -2624 c0 -28 -105 -174 -176 -243 -132
-128 -342 -251 -578 -338 -128 -47 -370 -109 -513 -131 -74 -11 -113 -21 -113
-29 0 -7 -3 -27 -6 -45 l-7 -32 69 7 c337 33 659 118 892 236 125 64 124 64
76 -36 -52 -110 -159 -216 -294 -293 -176 -99 -452 -177 -700 -197 -135 -11
-135 -11 -153 -57 -9 -23 -15 -44 -12 -46 8 -8 320 17 418 33 48 8 135 26 194
40 58 14 108 24 110 22 2 -3 -17 -31 -42 -64 -151 -201 -478 -362 -853 -418
-145 -22 -332 -30 -410 -17 -37 6 -110 16 -162 22 -174 21 -333 61 -495 126
-38 15 -72 29 -74 30 -2 2 16 43 39 91 63 131 107 245 144 373 51 174 65 263
92 566 l6 72 52 -14 c70 -19 293 -60 396 -74 593 -76 1123 -12 1635 197 120
49 362 170 416 208 40 28 49 30 49 11z"/>
<path d="M2735 5628 c-21 -11 -45 -37 -45 -49 0 -3 14 -12 30 -19 36 -15 68
-57 82 -106 17 -63 -30 -104 -82 -72 -31 20 -33 3 -5 -51 53 -106 150 -183
231 -185 37 -1 49 4 76 32 32 31 33 36 33 110 0 66 -5 87 -32 144 -68 144
-209 240 -288 196z"/>
<path d="M3543 1793 c9 -2 23 -2 30 0 6 3 -1 5 -18 5 -16 0 -22 -2 -12 -5z"/>
<path d="M80 1770 c0 -140 -12 -130 130 -100 52 10 155 31 229 45 74 14 135
26 137 28 2 3 34 132 34 140 0 4 -119 7 -265 7 l-265 0 0 -120z"/>
</g>
</svg>
